<?xml version="1.0" standalone="no"?>
<!DOCTYPE svg PUBLIC "-//W3C//DTD SVG 20010904//EN"
 "http://www.w3.org/TR/2001/REC-SVG-20010904/DTD/svg10.dtd">
<svg version="1.0" xmlns="http://www.w3.org/2000/svg"
 width="512.000000pt" height="512.000000pt" viewBox="0 0 512.000000 512.000000"
 preserveAspectRatio="xMidYMid meet">

<g transform="translate(0.000000,512.000000) scale(0.100000,-0.100000)"
fill="#000000" stroke="none">
<path d="M690 4793 c-34 -12 -50 -37 -50 -77 -1 -113 72 -915 86 -954 14 -38
64 -85 415 -387 219 -190 402 -345 408 -345 10 0 789 893 797 915 4 8 -116
154 -311 378 -235 271 -326 369 -353 381 -27 12 -152 25 -467 51 -236 19 -448
36 -470 39 -22 2 -47 1 -55 -1z"/>
<path d="M3935 4759 c-419 -35 -464 -40 -503 -61 -33 -18 -284 -297 -1098
-1223 l-1055 -1199 333 -333 c183 -183 339 -333 346 -333 7 0 553 473 1214
1052 989 867 1204 1059 1218 1093 14 30 27 146 54 480 20 242 36 458 36 481 0
45 -19 69 -60 77 -14 3 -232 -12 -485 -34z"/>
<path d="M3170 2273 c-201 -173 -366 -319 -368 -323 -2 -4 79 -85 179 -180
l182 -172 338 338 338 338 -69 75 c-38 42 -106 113 -152 158 l-83 82 -365
-316z"/>
<path d="M574 2304 c-138 -50 -216 -220 -169 -365 16 -51 49 -86 574 -612 622
-623 608 -612 736 -612 164 0 288 122 288 285 1 125 16 106 -601 722 -306 306
-573 564 -592 574 -48 24 -181 29 -236 8z"/>
<path d="M4339 2306 c-20 -7 -49 -22 -65 -34 -16 -11 -273 -265 -571 -564
-600 -601 -587 -585 -586 -708 1 -163 124 -286 288 -285 130 1 109 -17 732
608 559 560 561 562 578 621 44 152 -34 313 -173 360 -55 19 -153 20 -203 2z"/>
<path d="M308 1043 c-161 -162 -265 -275 -279 -303 -33 -63 -34 -186 -1 -247
57 -108 149 -167 261 -167 119 0 145 18 438 307 l258 256 -205 205 c-113 113
-207 206 -210 206 -3 0 -121 -116 -262 -257z"/>
<path d="M4340 1094 l-205 -205 258 -256 c293 -289 319 -307 438 -307 112 0
204 59 261 167 33 61 32 184 -1 247 -14 28 -118 141 -279 303 -141 141 -259
257 -262 257 -3 0 -97 -93 -210 -206z"/>
</g>
</svg>
